<svg width="34" height="34" viewBox="0 0 34 34" fill="none" xmlns="http://www.w3.org/2000/svg">
<path d="M6.8 14.7333C9.44444 20.0222 13.9778 24.3667 19.2667 27.2L23.4222 23.0444C23.9888 22.4779 24.7444 22.289 25.3111 22.6667C27.3889 23.4222 29.6555 23.8 32.1111 23.8C33.2444 23.8 34 24.5556 34 25.6889V32.1111C34 33.2444 33.2444 34 32.1111 34C14.3556 34 0 19.6444 0 1.88889C0 0.755556 0.755556 0 1.88889 0H8.5C9.63333 0 10.3889 0.755556 10.3889 1.88889C10.3889 4.15556 10.7667 6.42222 11.5222 8.68889C11.7111 9.25556 11.5222 10.0111 11.1444 10.5778L6.8 14.7333Z" fill="#363636"/>
</svg>
